<svg xmlns="http://www.w3.org/2000/svg" version="1.1" xmlns:xlink="http://www.w3.org/1999/xlink" width="512" height="512" x="0" y="0" viewBox="0 0 60 60" style="enable-background:new 0 0 512 512" xml:space="preserve" class="hovered-paths"><g><g fill="#000" fill-rule="nonzero"><path d="m57.461 19.047-.511-.511A15.357 15.357 0 0 0 47 14.049V5a3 3 0 0 0-3-3h-1a2 2 0 0 0-2-2h-6a2 2 0 0 0-2 2h-1c-.74.003-1.453.28-2 .78A2.981 2.981 0 0 0 28 2h-1a2 2 0 0 0-2-2h-6a2 2 0 0 0-2 2h-1a3 3 0 0 0-3 3v2a2 2 0 0 0-2 2v2H9V9a.9.9 0 0 0-.035-.173 3 3 0 1 0-1.93 0A.9.9 0 0 0 7 9v2H5.816a3 3 0 1 0 0 2H11v1.291a15.369 15.369 0 0 0-7.95 4.245l-.511.511A2.985 2.985 0 0 0 2 24.816V52a2 2 0 0 0 2 2v4a2 2 0 0 0 2 2h2a2 2 0 0 0 2-2v-4h8v4a2 2 0 0 0 2 2h2a2 2 0 0 0 2-2v-4a2 2 0 0 0 2-2v-4h2a2.981 2.981 0 0 0 2-.78c.547.5 1.26.777 2 .78h2v4a2 2 0 0 0 2 2v4a2 2 0 0 0 2 2h2a2 2 0 0 0 2-2v-4h8v4a2 2 0 0 0 2 2h2a2 2 0 0 0 2-2v-4a2 2 0 0 0 2-2V24.816a2.985 2.985 0 0 0-.539-5.769ZM8 5a1 1 0 1 1 0 2 1 1 0 0 1 0-2Zm-5 8a1 1 0 1 1 0-2 1 1 0 0 1 0 2Zm43 3a13.379 13.379 0 0 1 8.482 3H37.518A13.379 13.379 0 0 1 46 16ZM35 2h6v2h-6V2ZM19 2h6v2h-6V2Zm-6 7h2v5.049c-.333-.021-.664-.049-1-.049-.336 0-.667.028-1 .049V9Zm1 7a13.379 13.379 0 0 1 8.482 3H5.518A13.379 13.379 0 0 1 14 16ZM3 21h22a1 1 0 0 1 0 2H3a1 1 0 0 1 0-2Zm5 37H6v-4h2v4Zm14 0h-2v-4h2v4Zm1-6H4V25h20v27h-1Zm5-6h-2V24.816a2.985 2.985 0 0 0-.539-5.769l-.511-.511A15.369 15.369 0 0 0 17 14.291V9a2 2 0 0 0-2-2V5a1 1 0 0 1 1-1h1a2 2 0 0 0 2 2h6a2 2 0 0 0 2-2h1a1 1 0 0 1 1 1v40a1 1 0 0 1-1 1Zm4 0a1 1 0 0 1-1-1V5a1 1 0 0 1 1-1h1a2 2 0 0 0 2 2h6a2 2 0 0 0 2-2h1a1 1 0 0 1 1 1v9.049a15.357 15.357 0 0 0-9.95 4.487l-.511.511A2.985 2.985 0 0 0 34 24.816V46h-2Zm8 12h-2v-4h2v4Zm14 0h-2v-4h2v4Zm1-6H36V25h20v27h-1Zm2-29H35a1 1 0 0 1 0-2h22a1 1 0 0 1 0 2Z" fill="#0c8fce" opacity="1" data-original="#000000" class="hovered-path"></path><path d="M20 37H8a2 2 0 0 0-2 2v9a2 2 0 0 0 2 2h12a2 2 0 0 0 2-2v-9a2 2 0 0 0-2-2Zm0 2v4.29c-.465-.29-.9-.625-1.3-1A1 1 0 0 0 17 43c0 .6-1.777 1-3 1a5.865 5.865 0 0 1-3.294-1.708A1 1 0 0 0 9 43c0 .266-.384.523-1 .711V39h12ZM8 48v-2.226a4.383 4.383 0 0 0 2.369-1.163A6.52 6.52 0 0 0 14 46c1.625 0 3.44-.39 4.373-1.394a8.731 8.731 0 0 0 1.628.94V48H8ZM52 37H40a2 2 0 0 0-2 2v9a2 2 0 0 0 2 2h12a2 2 0 0 0 2-2v-9a2 2 0 0 0-2-2Zm0 2v4.29a8.473 8.473 0 0 1-1.295-1A1 1 0 0 0 49 43c0 .6-1.777 1-3 1a5.865 5.865 0 0 1-3.294-1.708A1 1 0 0 0 41 43c0 .266-.384.523-1 .711V39h12Zm-12 9v-2.226a4.383 4.383 0 0 0 2.369-1.163A6.52 6.52 0 0 0 46 46c1.625 0 3.44-.39 4.373-1.394a8.731 8.731 0 0 0 1.628.94V48H40ZM14 35a4 4 0 1 0 0-8 4 4 0 0 0 0 8Zm0-6a2 2 0 1 1 0 4 2 2 0 0 1 0-4ZM46 35a4 4 0 1 0 0-8 4 4 0 0 0 0 8Zm0-6a2 2 0 1 1 0 4 2 2 0 0 1 0-4Z" fill="#0c8fce" opacity="1" data-original="#000000" class="hovered-path"></path></g></g></svg>