<svg xmlns="http://www.w3.org/2000/svg" version="1.1" xmlns:xlink="http://www.w3.org/1999/xlink" width="512" height="512" x="0" y="0" viewBox="0 0 2048 2048" style="enable-background:new 0 0 512 512" xml:space="preserve" class=""><g><path fill="#0c8fce" d="M717.07 1633H280c-13.25 0-24-10.75-24-24V439c0-13.25 10.75-24 24-24h437.07c13.25 0 24 10.75 24 24v1170c0 13.25-10.74 24-24 24zM304 1585h389.07V463H304zM1768 1633h-437.08c-13.25 0-24-10.75-24-24V439c0-13.25 10.75-24 24-24H1768c13.25 0 24 10.75 24 24v1170c0 13.25-10.75 24-24 24zm-413.08-48H1744V463h-389.08zM1242.54 1003.81H805.46c-13.25 0-24-10.75-24-24V439c0-13.25 10.75-24 24-24h437.07c13.25 0 24 10.75 24 24v540.81c.01 13.25-10.74 24-23.99 24zm-413.08-48h389.07V463H829.46zM1242.54 1633H805.46c-13.25 0-24-10.75-24-24v-540.81c0-13.25 10.75-24 24-24h437.07c13.25 0 24 10.75 24 24V1609c.01 13.25-10.74 24-23.99 24zm-413.08-48h389.07v-492.81H829.46z" opacity="1" data-original="#212121"></path><path fill="#0c8fce" d="M1330.92 913.06h-88.39c-13.25 0-24-10.75-24-24V498.15c0-13.25 10.75-24 24-24h88.39c13.25 0 24 10.75 24 24v390.91c0 13.26-10.74 24-24 24zm-64.38-48h40.39V522.15h-40.39zM805.46 913.06h-88.39c-13.25 0-24-10.75-24-24V498.15c0-13.25 10.75-24 24-24h88.39c13.25 0 24 10.75 24 24v390.91c0 13.26-10.74 24-24 24zm-64.39-48h40.39V522.15h-40.39zM1219.46 1092.19H828.54c-13.25 0-24-10.75-24-24V979.8c0-13.25 10.75-24 24-24h390.91c13.25 0 24 10.75 24 24v88.39c.01 13.26-10.74 24-23.99 24zm-366.92-48h342.91v-40.39H852.54zM573.28 682.5c-36.97 0-67.05-30.08-67.05-67.05s30.08-67.06 67.05-67.06 67.06 30.08 67.06 67.06-30.08 67.05-67.06 67.05zm0-86.11c-10.51 0-19.05 8.55-19.05 19.06s8.55 19.05 19.05 19.05 19.06-8.55 19.06-19.05-8.55-19.06-19.06-19.06zM423.79 831.99c-36.97 0-67.05-30.08-67.05-67.05s30.08-67.06 67.05-67.06 67.05 30.08 67.05 67.06-30.07 67.05-67.05 67.05zm0-86.11c-10.51 0-19.05 8.55-19.05 19.06s8.55 19.05 19.05 19.05 19.05-8.55 19.05-19.05-8.54-19.06-19.05-19.06zM573.28 1016.31c-36.97 0-67.05-30.08-67.05-67.06s30.08-67.05 67.05-67.05 67.06 30.08 67.06 67.05-30.08 67.06-67.06 67.06zm0-86.11c-10.51 0-19.05 8.55-19.05 19.05s8.55 19.06 19.05 19.06 19.06-8.55 19.06-19.06-8.55-19.05-19.06-19.05zM423.79 1165.8c-36.97 0-67.05-30.08-67.05-67.06 0-36.97 30.08-67.05 67.05-67.05s67.05 30.08 67.05 67.05c.01 36.98-30.07 67.06-67.05 67.06zm0-86.11c-10.51 0-19.05 8.55-19.05 19.05 0 10.51 8.55 19.06 19.05 19.06s19.05-8.55 19.05-19.06c.01-10.5-8.54-19.05-19.05-19.05zM573.28 1350.12c-36.97 0-67.05-30.08-67.05-67.05s30.08-67.05 67.05-67.05 67.06 30.08 67.06 67.05-30.08 67.05-67.06 67.05zm0-86.11c-10.51 0-19.05 8.55-19.05 19.05s8.55 19.05 19.05 19.05 19.06-8.55 19.06-19.05-8.55-19.05-19.06-19.05zM423.79 1499.61c-36.97 0-67.05-30.08-67.05-67.05s30.08-67.05 67.05-67.05 67.05 30.08 67.05 67.05-30.07 67.05-67.05 67.05zm0-86.11c-10.51 0-19.05 8.55-19.05 19.05s8.55 19.05 19.05 19.05 19.05-8.55 19.05-19.05-8.54-19.05-19.05-19.05zM1474.72 1499.61c-36.97 0-67.05-30.08-67.05-67.05s30.08-67.05 67.05-67.05 67.06 30.08 67.06 67.05-30.09 67.05-67.06 67.05zm0-86.11c-10.51 0-19.05 8.55-19.05 19.05s8.55 19.05 19.05 19.05c10.51 0 19.06-8.55 19.06-19.05s-8.55-19.05-19.06-19.05zM1624.21 1350.12c-36.97 0-67.05-30.08-67.05-67.05s30.08-67.05 67.05-67.05 67.05 30.08 67.05 67.05-30.08 67.05-67.05 67.05zm0-86.11c-10.51 0-19.05 8.55-19.05 19.05s8.55 19.05 19.05 19.05 19.05-8.55 19.05-19.05-8.55-19.05-19.05-19.05zM1474.72 1165.8c-36.97 0-67.05-30.08-67.05-67.06 0-36.97 30.08-67.05 67.05-67.05s67.06 30.08 67.06 67.05c-.01 36.98-30.09 67.06-67.06 67.06zm0-86.11c-10.51 0-19.05 8.55-19.05 19.05 0 10.51 8.55 19.06 19.05 19.06 10.51 0 19.06-8.55 19.06-19.06-.01-10.5-8.55-19.05-19.06-19.05zM1624.21 1016.31c-36.97 0-67.05-30.08-67.05-67.06s30.08-67.05 67.05-67.05 67.05 30.08 67.05 67.05-30.08 67.06-67.05 67.06zm0-86.11c-10.51 0-19.05 8.55-19.05 19.05s8.55 19.06 19.05 19.06 19.05-8.55 19.05-19.06-8.55-19.05-19.05-19.05zM1474.72 831.99c-36.97 0-67.05-30.08-67.05-67.05s30.08-67.06 67.05-67.06 67.06 30.08 67.06 67.06-30.09 67.05-67.06 67.05zm0-86.11c-10.51 0-19.05 8.55-19.05 19.06s8.55 19.05 19.05 19.05c10.51 0 19.06-8.55 19.06-19.05s-8.55-19.06-19.06-19.06zM1624.21 682.5c-36.97 0-67.05-30.08-67.05-67.05s30.08-67.06 67.05-67.06 67.05 30.08 67.05 67.06-30.08 67.05-67.05 67.05zm0-86.11c-10.51 0-19.05 8.55-19.05 19.06s8.55 19.05 19.05 19.05 19.05-8.55 19.05-19.05-8.55-19.06-19.05-19.06z" opacity="1" data-original="#212121"></path></g></svg>