<svg xmlns="http://www.w3.org/2000/svg" version="1.1" xmlns:xlink="http://www.w3.org/1999/xlink" width="512" height="512" x="0" y="0" viewBox="0 0 53 53" style="enable-background:new 0 0 512 512" xml:space="preserve" class=""><g><path d="M39.389 40.633c0-1.61-1.31-2.919-2.92-2.919s-2.917 1.31-2.917 2.919 1.308 2.918 2.918 2.918 2.919-1.31 2.919-2.918zm-2.92.918a.93.93 0 0 1-.917-.918.92.92 0 0 1 1.837 0 .92.92 0 0 1-.92.918zM44.483 49.055a3.162 3.162 0 0 0 3.159-3.158c0-1.742-1.417-3.159-3.159-3.159s-3.158 1.417-3.158 3.159a3.162 3.162 0 0 0 3.158 3.158zm0-4.317a1.16 1.16 0 0 1 0 2.317c-.628 0-1.158-.53-1.158-1.158 0-.639.52-1.159 1.158-1.159zM14.753 38.476a3.162 3.162 0 0 0-3.158 3.159 3.162 3.162 0 0 0 3.158 3.158 3.162 3.162 0 0 0 3.158-3.158 3.162 3.162 0 0 0-3.158-3.159zm0 4.317c-.628 0-1.158-.53-1.158-1.158 0-.64.52-1.159 1.158-1.159s1.158.52 1.158 1.159-.52 1.158-1.158 1.158zM26.688 45.897c0-1.61-1.31-2.92-2.92-2.92s-2.917 1.31-2.917 2.92 1.308 2.918 2.918 2.918 2.919-1.309 2.919-2.918zm-3.837 0a.92.92 0 0 1 1.837 0 .92.92 0 0 1-.92.918.93.93 0 0 1-.917-.918zM4.385 45.897c0 1.61 1.308 2.918 2.918 2.918s2.919-1.309 2.919-2.918-1.31-2.92-2.92-2.92-2.917 1.31-2.917 2.92zm3.837 0a.92.92 0 0 1-.92.918.93.93 0 0 1-.917-.918.92.92 0 0 1 1.837 0zM30.067 47.271v.012c0 .553.448.994 1 .994s1-.454 1-1.006a1 1 0 1 0-2 0zM15.911 48.049v.012c0 .553.447.994 1 .994s1-.454 1-1.006a1 1 0 1 0-2 0zM10.802 49.392v.013c0 .552.447.993 1 .993s1-.453 1-1.006a1 1 0 1 0-2 0zM10.222 38.462a1 1 0 1 0-2 0v.012c0 .553.447.994 1 .994s1-.454 1-1.006zM5.188 37.795a1 1 0 0 0-1 1v.012c0 .552.447.994 1 .994s1-.454 1-1.006-.448-1-1-1zM30.688 40.728a1 1 0 0 0-1 1v.012c0 .552.448.994 1 .994s1-.454 1-1.006-.447-1-1-1zM43.325 38.04a1 1 0 1 0-2 0v.012c0 .552.447.994 1 .994s1-.454 1-1.006zM47.936 39.71a1 1 0 1 0-2 0v.012c0 .553.447.994 1 .994s1-.454 1-1.006zM35.983 48.123v.012c0 .553.448.995 1 .995s1-.454 1-1.007a1 1 0 1 0-2 0zM21.765 34.825l2.127 1.694c.549.435 1.318.438 1.87-.003l2.12-1.692c.477-.382.75-.952.75-1.563V11.706a2.9 2.9 0 0 0 1.925-2.722l.002-1.105h1.011a2.005 2.005 0 0 0 2.003-2.002V3.602a1 1 0 0 0-1-1H17.07a1 1 0 0 0-1 1v2.275c0 1.104.899 2.002 2.002 2.002l1.015.003v1.102a2.9 2.9 0 0 0 1.924 2.722v21.553c0 .612.274 1.183.755 1.566zm4.867-12.711-3.622 3.432v-2.573l3.622-3.432zm0-5.328-3.622 3.432v-2.572l3.623-3.432zM23.01 28.301l3.622-3.432v2.573l-3.622 3.431zm0-13.41v-3.003h3.17zm1.814 19.814-1.603-1.277 3.411-3.232v3.067zM19.084 5.88l-1.015-.002V4.602h13.503l-.002 1.277H30.56a2.005 2.005 0 0 0-2.002 2.003v1.102a.905.905 0 0 1-.905.904H21.99a.905.905 0 0 1-.904-.904V7.882a2.005 2.005 0 0 0-2.002-2.003z" fill="#0c8fce" opacity="1" data-original="#000000" class=""></path><path d="M49.5 27.376H33.646a3.008 3.008 0 0 0-3.005 3.004v4.33c0 .304-.139.59-.375.781l-4.809 3.837a1.02 1.02 0 0 1-1.26 0l-4.815-3.832A1.024 1.024 0 0 1 19 34.71v-4.33a3.008 3.008 0 0 0-3.004-3.004H3.5a1 1 0 1 0 0 2h12.497c.554 0 1.004.45 1.004 1.004v1.652c-.646.259-1.048.763-1.339 1.136-.356.456-.454.536-.651.536s-.294-.08-.65-.537c-.405-.52-1.016-1.304-2.218-1.304-1.207 0-1.82.785-2.227 1.305-.356.456-.454.536-.651.536-.203 0-.302-.08-.662-.54-.407-.518-1.02-1.301-2.225-1.301-1.208 0-1.821.785-2.228 1.305-.356.456-.453.536-.65.536a1 1 0 1 0 0 2c1.207 0 1.82-.785 2.227-1.305.356-.456.454-.536.65-.536.197 0 .295.08.651.535.409.52 1.025 1.306 2.237 1.306 1.208 0 1.82-.785 2.227-1.305.357-.456.453-.536.65-.536.192 0 .288.08.64.533.406.52 1.02 1.308 2.229 1.308.997 0 1.585-.534 1.99-1.013v.019c0 .897.42 1.772 1.129 2.345l4.821 3.839a3.004 3.004 0 0 0 3.752-.001l4.816-3.842a3 3 0 0 0 .939-1.363c1.073-.083 1.646-.8 2.028-1.29.357-.455.453-.535.65-.535s.296.08.652.536c.406.52 1.02 1.305 2.227 1.305 1.202 0 1.813-.785 2.217-1.304.357-.457.454-.537.65-.537s.296.08.652.537c.404.52 1.015 1.304 2.217 1.304 1.208 0 1.821-.785 2.228-1.305.356-.456.453-.536.65-.536s.295.08.651.537c.405.52 1.015 1.304 2.217 1.304a1 1 0 1 0 0-2c-.19 0-.286-.08-.639-.532-.406-.522-1.02-1.31-2.23-1.31-1.206 0-1.82.786-2.226 1.306-.356.456-.454.536-.651.536-.19 0-.286-.08-.639-.532-.406-.522-1.02-1.31-2.23-1.31-1.208 0-1.821.788-2.228 1.31-.352.453-.448.532-.64.532-.197 0-.293-.08-.65-.536-.406-.52-1.02-1.305-2.227-1.305-1.207 0-1.82.785-2.227 1.305a4.975 4.975 0 0 1-.27.322v-3.11c0-.554.452-1.004 1.006-1.004H49.5a1 1 0 1 0 0-2z" fill="#0c8fce" opacity="1" data-original="#000000" class=""></path></g></svg>