<svg xmlns="http://www.w3.org/2000/svg" version="1.1" xmlns:xlink="http://www.w3.org/1999/xlink" width="512" height="512" x="0" y="0" viewBox="0 0 96 96" style="enable-background:new 0 0 512 512" xml:space="preserve" class=""><g><path d="M40.001 86.263a24.912 24.912 0 0 1-15.97 5.81v1.958a26.876 26.876 0 0 0 17.229-6.267zM45.965 78.957a25.054 25.054 0 0 1-3.33 4.75L44.1 85.01a27.048 27.048 0 0 0 3.59-5.122z" fill="#0c8fce" opacity="1" data-original="#000000" class=""></path><path d="M1 67.165c0 12.7 10.331 23.03 23.03 23.03s23.031-10.33 23.031-23.03-10.331-23.031-23.03-23.031S1 54.465 1 67.164zm9.637.979a13.321 13.321 0 0 0 1.307 4.868l-6.617 3.82a20.909 20.909 0 0 1-2.319-8.688zm.008-1.958H3.008c.144-3.12.957-6.064 2.32-8.688l6.62 3.821a13.433 13.433 0 0 0-1.303 4.867zm-4.334 12.34 6.604-3.812a13.55 13.55 0 0 0 3.567 3.567l-3.813 6.603a21.21 21.21 0 0 1-6.358-6.358zm23.567.725 3.82 6.617a20.906 20.906 0 0 1-8.688 2.32v-7.63a13.317 13.317 0 0 0 4.868-1.307zm-6.827 8.937a20.907 20.907 0 0 1-8.688-2.32l3.82-6.617a13.318 13.318 0 0 0 4.868 1.308zm12.34-3.304-3.812-6.603a13.55 13.55 0 0 0 3.567-3.567l6.604 3.812a21.212 21.212 0 0 1-6.358 6.358zm2.033-18.698a13.321 13.321 0 0 0-1.307-4.869l6.617-3.82a20.909 20.909 0 0 1 2.32 8.689zm0 1.958h7.63a20.908 20.908 0 0 1-2.32 8.688l-6.617-3.82a13.323 13.323 0 0 0 1.307-4.868zm4.326-12.34-6.604 3.812c-2.421-3.555-6.5-5.894-11.116-5.894-1.676 0-3.313.306-4.866.911l.712 1.824a11.404 11.404 0 0 1 4.155-.777c6.333 0 11.485 5.152 11.485 11.485 0 6.333-5.152 11.485-11.485 11.485s-11.486-5.152-11.486-11.485a11.55 11.55 0 0 1 4.634-9.212l-1.17-1.57a13.446 13.446 0 0 0-3.08 3.24l-6.618-3.82c3.752-5.83 10.285-9.71 17.72-9.71s13.967 3.88 17.719 9.71zM55.13 85.501a25.074 25.074 0 0 1-2.818-3.057l-1.546 1.203a27.04 27.04 0 0 0 3.038 3.296zM57.243 89.626a26.723 26.723 0 0 0 14.726 4.405v-1.959c-4.87 0-9.59-1.411-13.65-4.082z" fill="#0c8fce" opacity="1" data-original="#000000" class=""></path><path d="M71.969 44.134c-12.7 0-23.031 10.331-23.031 23.03s10.331 23.032 23.03 23.032c8.124 0 15.273-4.231 19.374-10.601l.15.086.98-1.696-.139-.08a22.858 22.858 0 0 0 2.621-9.353H95v-1.958h-.015c-.305-12.436-10.509-22.46-23.017-22.46zm13.414 22.46a13.357 13.357 0 0 0-1.063-4.727l6.617-3.82a20.897 20.897 0 0 1 2.076 8.546h-7.63zM71.97 46.091c7.652 0 14.344 4.113 18.036 10.231l-6.6 3.81c-2.37-3.839-6.603-6.411-11.436-6.411-2.081 0-4.077.464-5.934 1.381l.867 1.756a11.355 11.355 0 0 1 5.067-1.179c6.333 0 11.485 5.152 11.485 11.485 0 6.333-5.152 11.485-11.485 11.485-6.333 0-11.485-5.152-11.485-11.485 0-3.646 1.68-6.997 4.61-9.194l-1.175-1.567c-3.113 2.335-5.048 5.939-5.335 9.781h-7.638c.517-11.163 9.734-20.093 21.023-20.093zm-.98 34.467v7.629a20.906 20.906 0 0 1-8.688-2.32l3.82-6.617a13.317 13.317 0 0 0 4.868 1.308zm1.959 0a13.322 13.322 0 0 0 4.868-1.308l3.82 6.617a20.907 20.907 0 0 1-8.688 2.32zM58.576 68.144a13.32 13.32 0 0 0 1.307 4.868l-6.617 3.82a20.907 20.907 0 0 1-2.32-8.688h7.63zm-4.327 10.382 6.604-3.812a13.55 13.55 0 0 0 3.567 3.567l-3.812 6.603a21.209 21.209 0 0 1-6.359-6.358zm29.081 6.358-3.812-6.603a13.548 13.548 0 0 0 3.507-3.488l6.612 3.817a21.214 21.214 0 0 1-6.307 6.274zm7.3-7.963-6.618-3.82a13.313 13.313 0 0 0 1.328-4.55h7.631a20.906 20.906 0 0 1-2.342 8.37zM74.866 25a26.738 26.738 0 0 0-7.421-18.52l-1.417 1.35A24.789 24.789 0 0 1 72.908 25h1.958zM62.343 2.292l-1.048 1.654c.836.53 1.65 1.116 2.418 1.742l1.237-1.517a27.176 27.176 0 0 0-2.607-1.88z" fill="#0c8fce" opacity="1" data-original="#000000" class=""></path><path d="M24.968 25C24.968 37.7 35.3 48.031 48 48.031S71.03 37.7 71.03 25.001 60.7 1.968 48 1.968 24.968 12.301 24.968 25zm9.638.98a13.32 13.32 0 0 0 1.308 4.867l-6.618 3.82a20.907 20.907 0 0 1-2.32-8.688zM30.28 36.361l6.604-3.813a13.552 13.552 0 0 0 3.567 3.567l-3.813 6.604a21.211 21.211 0 0 1-6.358-6.358zm23.567.724 3.82 6.618a20.906 20.906 0 0 1-8.688 2.32v-7.63a13.319 13.319 0 0 0 4.868-1.308zm-6.826 8.937a20.908 20.908 0 0 1-8.689-2.32l3.82-6.616a13.32 13.32 0 0 0 4.869 1.307zM69.072 25c0 7.435-3.88 13.968-9.711 17.72l-3.813-6.604c3.555-2.421 5.895-6.5 5.895-11.116 0-3.024-.985-5.883-2.847-8.265l-1.543 1.206A11.36 11.36 0 0 1 59.484 25c0 6.332-5.152 11.484-11.484 11.484-6.333 0-11.485-5.152-11.485-11.485S41.667 13.516 48 13.516c2.692 0 5.31.953 7.373 2.686l1.259-1.5A13.445 13.445 0 0 0 48 11.557c-7.082 0-12.889 5.509-13.394 12.464h-7.63C27.493 12.858 36.711 3.928 48 3.928c11.619 0 21.072 9.453 21.072 21.072z" fill="#0c8fce" opacity="1" data-original="#000000" class=""></path></g></svg>