<svg xmlns="http://www.w3.org/2000/svg" version="1.1" xmlns:xlink="http://www.w3.org/1999/xlink" width="512" height="512" x="0" y="0" viewBox="0 0 512 512" style="enable-background:new 0 0 512 512" xml:space="preserve" class=""><g><g data-name="Icons copy"><path d="M472 448h-88v-16a24.028 24.028 0 0 0-24-24H152a24.028 24.028 0 0 0-24 24v16H40a24 24 0 0 0 0 48h432a24 24 0 0 0 0-48zm-328-16a8.009 8.009 0 0 1 8-8h208a8.009 8.009 0 0 1 8 8v16H144zm328 48H40a8 8 0 0 1 0-16h432a8 8 0 0 1 0 16zM168.855 146.833l33.936-33.936 11.313 11.313-33.936 33.936zM197.134 163.804l22.624-22.625 11.313 11.313-22.625 22.625z" fill="#0c8fce" opacity="1" data-original="#000000" class=""></path><path d="M320 208h16V48a8 8 0 0 0-2.343-5.657l-24-24A8 8 0 0 0 304 16H96a8 8 0 0 0-5.657 2.343l-24 24A8 8 0 0 0 64 48v272a8 8 0 0 0 2.343 5.657l24 24A8 8 0 0 0 96 352h120v-16H99.313L80 316.687V51.313L99.313 32h201.374L320 51.313z" fill="#0c8fce" opacity="1" data-original="#000000" class=""></path><path d="M96 48h16v16H96zM288 48h16v16h-16zM96 304h16v16H96zM488 280H376a8 8 0 0 0-5.657 2.343L356.686 296H328a8 8 0 0 0-8 8h-40a8 8 0 0 0-5.657 2.343l-36 36a24.971 24.971 0 0 0 35.314 35.314L299.313 352H320a8 8 0 0 0 8 8h160a8 8 0 0 0 8-8v-64a8 8 0 0 0-8-8zm-192 56a8 8 0 0 0-5.657 2.343l-28 28a8.97 8.97 0 1 1-12.686-12.686L283.313 320H320v16zm56 8h-16v-32h16zm80 0h-32v-8a8.009 8.009 0 0 1 8-8h16a8.009 8.009 0 0 1 8 8zm48 0h-32v-8a24.028 24.028 0 0 0-24-24h-16a24.028 24.028 0 0 0-24 24v8h-16v-36.686L379.313 296H480zM264 296v-64h24v-16h-24v-16h24a8 8 0 0 0 8-8V96a8 8 0 0 0-8-8H112a8 8 0 0 0-8 8v96a8 8 0 0 0 8 8h136v16H112v16h136v64zM120 184v-80h160v80h-16v-16h-16v16z" fill="#0c8fce" opacity="1" data-original="#000000" class=""></path><path d="m211.893 250.05 15.456-4.145 8.58 32.003-15.455 4.144zM169.067 249.428l13.855-8 29.194 50.564-13.855 8zM114.302 253.647l11.313-11.312 63.99 63.99-11.312 11.313zM123.992 317.041l8-13.856 16 9.237-8.001 13.857zM112 376h88v16h-88zM312 376h80v16h-80zM370.277 258.357l32.73-32.73 11.314 11.312-32.73 32.731zM305.062 283l40.995-71.002 13.855 8L318.917 291zM276.215 277.966l8.58-32.003 15.456 4.144-8.58 32.003zM408 376h16v16h-16zM80 376h16v16H80z" fill="#0c8fce" opacity="1" data-original="#000000" class=""></path></g></g></svg>