<svg xmlns="http://www.w3.org/2000/svg" version="1.1" xmlns:xlink="http://www.w3.org/1999/xlink" width="512" height="512" x="0" y="0" viewBox="0 0 511.996 511.996" style="enable-background:new 0 0 512 512" xml:space="preserve" class=""><g><path d="M504.496 66.627a7.499 7.499 0 0 0-7.5 7.5v19.106h-16.062v-7.722c0-4.143-3.357-7.5-7.5-7.5h-93.187a7.499 7.499 0 0 0-7.5 7.5v7.722h-23.562c-4.143 0-7.5 3.357-7.5 7.5s3.357 7.5 7.5 7.5h23.562v8.291c0 4.143 3.357 7.5 7.5 7.5h8.031v15.805h-64.54v-8.106c0-4.143-3.357-7.5-7.5-7.5H226.82a7.499 7.499 0 0 0-7.5 7.5v8.106h-66.51v-15.991h23.562c4.143 0 7.5-3.357 7.5-7.5v-10.216h23.562c4.143 0 7.5-3.357 7.5-7.5s-3.357-7.5-7.5-7.5h-23.562V80.907c0-4.143-3.357-7.5-7.5-7.5H152.81V54.213c0-4.143-3.357-7.5-7.5-7.5H82.957c-4.143 0-7.5 3.357-7.5 7.5s3.357 7.5 7.5 7.5h54.853V139.9H28.561V61.713h21.603c4.143 0 7.5-3.357 7.5-7.5s-3.357-7.5-7.5-7.5H21.061a7.499 7.499 0 0 0-7.5 7.5v256.382H7.5a7.499 7.499 0 0 0-7.5 7.5v30.966c0 4.143 3.357 7.5 7.5 7.5h8.031V457.65c0 4.143 3.357 7.5 7.5 7.5h186.373c4.143 0 7.5-3.357 7.5-7.5v-23.429h155.843v23.562c0 4.143 3.357 7.5 7.5 7.5h108.718c4.143 0 7.5-3.357 7.5-7.5V356.561h8.031c4.143 0 7.5-3.357 7.5-7.5v-30.966c0-4.143-3.357-7.5-7.5-7.5h-23.562V252.8c0-4.143-3.357-7.5-7.5-7.5s-7.5 3.357-7.5 7.5v57.795h-62.655V186.032h62.655v34.102c0 4.143 3.357 7.5 7.5 7.5s7.5-3.357 7.5-7.5v-111.9h16.062v14.885c0 4.143 3.357 7.5 7.5 7.5s7.5-3.357 7.5-7.5V74.127c0-4.143-3.357-7.5-7.5-7.5zM387.747 93.012h78.187v16.013h-78.187zm15.531 31.012h62.655v15.805h-62.655zM234.32 139.223h74.418v47.125H234.32zm-65.449-50.816v20.431H152.81V88.407zm50.449 66.422v16.203h-82.042v-16.133l82.042-.07zm-81.51 78.253H28.561v-16.204H137.81zm-15.532-78.183v46.979H28.561v-46.979zm-93.717 93.183H137.81v62.513H28.561zm188.343 171.139v-62.66h155.843v62.66zm264.561 31.062h-93.718V356.56h93.718zm15.531-108.722h-312.51c-4.143 0-7.5 3.357-7.5 7.5s3.357 7.5 7.5 7.5h17.418v93.589H30.531v-93.589h121.066c4.143 0 7.5-3.357 7.5-7.5s-3.357-7.5-7.5-7.5H15v-15.966h481.996zM152.81 310.595v-16.3h235.469v16.3zm235.468-31.3H152.81v-69.917c0-4.143-3.357-7.5-7.5-7.5h-8.031v-15.846h82.042v7.815c0 4.143 3.357 7.5 7.5 7.5h89.418c4.143 0 7.5-3.357 7.5-7.5v-7.815h64.54v93.263zm-64.54-108.263v-16.203h142.195v16.203H323.738z" fill="#0c8fce" opacity="1" data-original="#000000" class=""></path><path d="M285.598 155.428c-3.665.769-6.04 3.92-6.04 7.36 0 4.157 3.387 7.49 7.5 7.49 4.184 0 7.5-3.392 7.5-7.49 0-4.742-4.319-8.276-8.96-7.36zM255.998 155.286c-4.088 0-7.5 3.309-7.5 7.502 0 3.436 2.355 6.572 6.03 7.35 4.515.928 8.97-2.543 8.97-7.35 0-4.187-3.403-7.502-7.5-7.502zM44.622 100.578c0 12.654 10.295 22.949 22.949 22.949s22.949-10.295 22.949-22.949-10.294-22.949-22.949-22.949-22.949 10.295-22.949 22.949zm22.949-7.949c4.383 0 7.949 3.566 7.949 7.949s-3.566 7.949-7.949 7.949-7.949-3.566-7.949-7.949 3.566-7.949 7.949-7.949zM114.248 108.158c4.043 0 7.5-3.295 7.5-7.5 0-4.237-3.476-7.501-7.501-7.501-4.159 0-7.499 3.388-7.499 7.501 0 4.026 3.246 7.5 7.5 7.5zM114.247 279.295H90.589c-4.143 0-7.5 3.357-7.5 7.5s3.357 7.5 7.5 7.5h23.658c4.143 0 7.5-3.357 7.5-7.5s-3.357-7.5-7.5-7.5z" fill="#0c8fce" opacity="1" data-original="#000000" class=""></path></g></svg>